<svg xmlns="http://www.w3.org/2000/svg" width="46" height="48" fill="none"><path stroke="url(#a)" stroke-width="3" d="M22.683 8.33c4.24 0 7.657 3.409 7.658 7.59 0 4.181-3.419 7.59-7.658 7.59s-7.659-3.409-7.659-7.59 3.419-7.59 7.659-7.59Z"/><mask id="c" fill="#fff"><path d="M45.365 22.514c0 12.434-10.155 22.514-22.683 22.514C10.155 45.028 0 34.948 0 22.514S10.155 0 22.682 0C35.21 0 45.365 10.08 45.365 22.514"/></mask><g clip-path="url(#b)" data-figma-skip-parse="true" mask="url(#c)"><foreignObject width="4385.87" height="4385.87" x="-2192.93" y="-2192.93" transform="rotate(-80.98 28.818 -3.877)scale(.01592 .01604)"><div xmlns="http://www.w3.org/1999/xhtml" style="background:conic-gradient(from 90deg,#777edd 0deg,#2b3075 187.624deg,#848bee 329.151deg,#777edd 360deg);height:100%;width:100%;opacity:1"/></foreignObject></g><path d="M45.365 22.514h-3c0 10.756-8.791 19.514-19.683 19.514v6c14.163 0 25.683-11.402 25.683-25.514zM22.682 45.028v-3C11.791 42.028 3 33.27 3 22.514h-6c0 14.112 11.52 25.514 25.682 25.514zM0 22.514h3C3 11.758 11.791 3 22.682 3v-6C8.52-3-3 8.402-3 22.514zM22.682 0v3c10.892 0 19.683 8.758 19.683 19.514h6C48.365 8.402 36.845-3 22.682-3z" data-figma-gradient-fill="{&quot;type&quot;:&quot;GRADIENT_ANGULAR&quot;,&quot;stops&quot;:[{&quot;color&quot;:{&quot;r&quot;:0.17039448022842407,&quot;g&quot;:0.18835407495498657,&quot;b&quot;:0.46218550205230713,&quot;a&quot;:1.0},&quot;position&quot;:0.52117657661437988},{&quot;color&quot;:{&quot;r&quot;:0.51764708757400513,&quot;g&quot;:0.54509806632995605,&quot;b&quot;:0.93333333730697632,&quot;a&quot;:1.0},&quot;position&quot;:0.91430920362472534}],&quot;stopsVar&quot;:[{&quot;color&quot;:{&quot;r&quot;:0.17039448022842407,&quot;g&quot;:0.18835407495498657,&quot;b&quot;:0.46218550205230713,&quot;a&quot;:1.0},&quot;position&quot;:0.52117657661437988},{&quot;color&quot;:{&quot;r&quot;:0.51764708757400513,&quot;g&quot;:0.54509806632995605,&quot;b&quot;:0.93333333730697632,&quot;a&quot;:1.0},&quot;position&quot;:0.91430920362472534}],&quot;transform&quot;:{&quot;m00&quot;:4.9902663230895996,&quot;m01&quot;:31.673789978027344,&quot;m02&quot;:9.7972545623779297,&quot;m10&quot;:-31.438676834106445,&quot;m11&quot;:5.0275855064392090,&quot;m12&quot;:38.398086547851562},&quot;opacity&quot;:1.0,&quot;blendMode&quot;:&quot;NORMAL&quot;,&quot;visible&quot;:true}" mask="url(#c)"/><mask id="d" fill="#fff"><path d="M9.894 35.276c.006-1.534.343-3.052.992-4.467a11.7 11.7 0 0 1 2.788-3.78 12.9 12.9 0 0 1 4.16-2.514 13.9 13.9 0 0 1 4.898-.87c1.68.008 3.341.317 4.89.911 1.55.594 2.956 1.46 4.138 2.55a11.7 11.7 0 0 1 2.757 3.803c.636 1.42.96 2.941.954 4.476l-2.846-.012a8.4 8.4 0 0 0-.742-3.48 9.1 9.1 0 0 0-2.143-2.956 10 10 0 0 0-3.217-1.983 10.8 10.8 0 0 0-3.802-.708 10.8 10.8 0 0 0-3.808.676 10 10 0 0 0-3.234 1.955 9.1 9.1 0 0 0-2.168 2.938 8.4 8.4 0 0 0-.771 3.473z"/></mask><path stroke="#0c1387" stroke-width="6" d="M9.894 35.276c.006-1.534.343-3.052.992-4.467a11.7 11.7 0 0 1 2.788-3.78 12.9 12.9 0 0 1 4.16-2.514 13.9 13.9 0 0 1 4.898-.87c1.68.008 3.341.317 4.89.911 1.55.594 2.956 1.46 4.138 2.55a11.7 11.7 0 0 1 2.757 3.803c.636 1.42.96 2.941.954 4.476l-2.846-.012a8.4 8.4 0 0 0-.742-3.48 9.1 9.1 0 0 0-2.143-2.956 10 10 0 0 0-3.217-1.983 10.8 10.8 0 0 0-3.802-.708 10.8 10.8 0 0 0-3.808.676 10 10 0 0 0-3.234 1.955 9.1 9.1 0 0 0-2.168 2.938 8.4 8.4 0 0 0-.771 3.473z" mask="url(#d)"/><defs><linearGradient id="a" x1="22.683" x2="22.683" y1="15.148" y2="25.01" gradientUnits="userSpaceOnUse"><stop stop-color="#858bee"/><stop offset="1" stop-color="#0c1387"/></linearGradient><clipPath id="b"><path d="M45.365 22.514h-3c0 10.756-8.791 19.514-19.683 19.514v6c14.163 0 25.683-11.402 25.683-25.514zM22.682 45.028v-3C11.791 42.028 3 33.27 3 22.514h-6c0 14.112 11.52 25.514 25.682 25.514zM0 22.514h3C3 11.758 11.791 3 22.682 3v-6C8.52-3-3 8.402-3 22.514zM22.682 0v3c10.892 0 19.683 8.758 19.683 19.514h6C48.365 8.402 36.845-3 22.682-3z" mask="url(#c)"/></clipPath></defs></svg>