<svg 
    xmlns="http://www.w3.org/2000/svg" 
    viewBox="0 0 24 24" 
    fill="none" 
    stroke="currentColor" 
    stroke-width="1.5" 
    stroke-linecap="round" 
    stroke-linejoin="round" 
    class="ai-model-icon"
    style="width: 1em; height: 1em; vertical-align: middle;"
>
    <rect x="3" y="3" width="18" height="18" rx="2" ry="2"></rect>
    <line x1="8" y1="3" x2="8" y2="1"></line>
    <line x1="16" y1="3" x2="16" y2="1"></line>
    <line x1="8" y1="21" x2="8" y2="23"></line>
    <line x1="16" y1="21" x2="16" y2="23"></line>
    <line x1="3" y1="8" x2="1" y2="8"></line>
    <line x1="3" y1="16" x2="1" y2="16"></line>
    <line x1="21" y1="8" x2="23" y2="8"></line>
    <line x1="21" y1="16" x2="23" y2="16"></line>

    <path d="M9 12a3 3 0 1 1 6 0 3 3 0 1 1-6 0"></path>
    <circle cx="12" cy="12" r="1"></circle>
    <path d="M12 9v1"></path>
    <path d="M12 14v1"></path>
    <path d="M10.5 10.5l.7.7"></path>
    <path d="M12.8 12.8l.7.7"></path>
    <path d="M13.5 10.5l-.7.7"></path>
    <path d="M11.2 12.8l-.7.7"></path>
</svg>